<?xml version="1.0" encoding="UTF-8" standalone="no"?>
<!DOCTYPE svg PUBLIC "-//W3C//DTD SVG 1.1//EN"
 "http://www.w3.org/Graphics/SVG/1.1/DTD/svg11.dtd">
<!-- Generated by graphviz version 2.40.1 (20161225.0304)
 -->
<!-- Title: dependencies Pages: 1 -->
<svg width="504pt" height="211pt"
 viewBox="0.00 0.00 504.00 211.00" xmlns="http://www.w3.org/2000/svg" xmlns:xlink="http://www.w3.org/1999/xlink">
<g id="graph0" class="graph" transform="scale(1 1) rotate(0) translate(4 207)">
<title>dependencies</title>
<polygon fill="#ffffff" stroke="transparent" points="-4,4 -4,-207 500,-207 500,4 -4,4"/>
<text text-anchor="start" x="227.0091" y="-42.4" font-family="sans-serif" font-weight="bold" font-size="14.00" fill="#000000">Legend</text>
<polygon fill="#ffffb3" stroke="transparent" points="14,-10 14,-30 34,-30 34,-10 14,-10"/>
<text text-anchor="start" x="37.629" y="-15.4" font-family="sans-serif" font-size="14.00" fill="#000000"> &#160;Declarations</text>
<polygon fill="#8dd3c7" stroke="transparent" points="127,-10 127,-30 147,-30 147,-10 127,-10"/>
<text text-anchor="start" x="150.7251" y="-15.4" font-family="sans-serif" font-size="14.00" fill="#000000"> &#160;Module</text>
<polygon fill="#80b1d3" stroke="transparent" points="213,-10 213,-30 233,-30 233,-10 213,-10"/>
<text text-anchor="start" x="236.7812" y="-15.4" font-family="sans-serif" font-size="14.00" fill="#000000"> &#160;Bootstrap</text>
<polygon fill="#fdb462" stroke="transparent" points="310,-10 310,-30 330,-30 330,-10 310,-10"/>
<text text-anchor="start" x="333.6732" y="-15.4" font-family="sans-serif" font-size="14.00" fill="#000000"> &#160;Providers</text>
<polygon fill="#fb8072" stroke="transparent" points="406,-10 406,-30 426,-30 426,-10 406,-10"/>
<text text-anchor="start" x="429.7258" y="-15.4" font-family="sans-serif" font-size="14.00" fill="#000000"> &#160;Exports</text>
<g id="clust1" class="cluster">
<title>cluster_ApplicationModule</title>
<polygon fill="none" stroke="#000000" stroke-dasharray="1,5" points="23.5,-70 23.5,-195 472.5,-195 472.5,-70 23.5,-70"/>
</g>
<g id="clust3" class="cluster">
<title>cluster_ApplicationModule_imports</title>
<polygon fill="none" stroke="#000000" points="31.5,-78 31.5,-130 464.5,-130 464.5,-78 31.5,-78"/>
</g>
<!-- ArticleModule -->
<g id="node1" class="node">
<title>ArticleModule</title>
<polygon fill="#8dd3c7" stroke="#000000" points="456.9189,-122 453.9189,-126 432.9189,-126 429.9189,-122 358.0811,-122 358.0811,-86 456.9189,-86 456.9189,-122"/>
<text text-anchor="middle" x="407.5" y="-99.8" font-family="Times,serif" font-size="14.00" fill="#000000">ArticleModule</text>
</g>
<!-- ApplicationModule -->
<g id="node5" class="node">
<title>ApplicationModule</title>
<polygon fill="#8dd3c7" stroke="#000000" points="300.1485,-187 297.1485,-191 276.1485,-191 273.1485,-187 174.8515,-187 174.8515,-151 300.1485,-151 300.1485,-187"/>
<text text-anchor="middle" x="237.5" y="-164.8" font-family="Times,serif" font-size="14.00" fill="#000000">ApplicationModule</text>
</g>
<!-- ArticleModule&#45;&gt;ApplicationModule -->
<g id="edge1" class="edge">
<title>ArticleModule&#45;&gt;ApplicationModule</title>
<path fill="none" stroke="#000000" d="M407.5,-122.1061C407.5,-141.3391 407.5,-169 407.5,-169 407.5,-169 310.3187,-169 310.3187,-169"/>
<polygon fill="#000000" stroke="#000000" points="310.3188,-165.5001 300.3187,-169 310.3187,-172.5001 310.3188,-165.5001"/>
</g>
<!-- ProfileModule -->
<g id="node2" class="node">
<title>ProfileModule</title>
<polygon fill="#8dd3c7" stroke="#000000" points="340.15,-122 337.15,-126 316.15,-126 313.15,-122 242.85,-122 242.85,-86 340.15,-86 340.15,-122"/>
<text text-anchor="middle" x="291.5" y="-99.8" font-family="Times,serif" font-size="14.00" fill="#000000">ProfileModule</text>
</g>
<!-- ProfileModule&#45;&gt;ApplicationModule -->
<g id="edge2" class="edge">
<title>ProfileModule&#45;&gt;ApplicationModule</title>
<path fill="none" stroke="#000000" d="M271.4996,-122.1061C271.4996,-122.1061 271.4996,-140.991 271.4996,-140.991"/>
<polygon fill="#000000" stroke="#000000" points="267.9997,-140.9909 271.4996,-150.991 274.9997,-140.991 267.9997,-140.9909"/>
</g>
<!-- TagModule -->
<g id="node3" class="node">
<title>TagModule</title>
<polygon fill="#8dd3c7" stroke="#000000" points="225.3176,-122 222.3176,-126 201.3176,-126 198.3176,-122 143.6824,-122 143.6824,-86 225.3176,-86 225.3176,-122"/>
<text text-anchor="middle" x="184.5" y="-99.8" font-family="Times,serif" font-size="14.00" fill="#000000">TagModule</text>
</g>
<!-- TagModule&#45;&gt;ApplicationModule -->
<g id="edge3" class="edge">
<title>TagModule&#45;&gt;ApplicationModule</title>
<path fill="none" stroke="#000000" d="M199.9173,-122.1061C199.9173,-122.1061 199.9173,-140.991 199.9173,-140.991"/>
<polygon fill="#000000" stroke="#000000" points="196.4173,-140.9909 199.9173,-150.991 203.4173,-140.991 196.4173,-140.9909"/>
</g>
<!-- UserModule -->
<g id="node4" class="node">
<title>UserModule</title>
<polygon fill="#8dd3c7" stroke="#000000" points="125.4762,-122 122.4762,-126 101.4762,-126 98.4762,-122 39.5238,-122 39.5238,-86 125.4762,-86 125.4762,-122"/>
<text text-anchor="middle" x="82.5" y="-99.8" font-family="Times,serif" font-size="14.00" fill="#000000">UserModule</text>
</g>
<!-- UserModule&#45;&gt;ApplicationModule -->
<g id="edge4" class="edge">
<title>UserModule&#45;&gt;ApplicationModule</title>
<path fill="none" stroke="#000000" d="M82.5,-122.1061C82.5,-141.3391 82.5,-169 82.5,-169 82.5,-169 164.4556,-169 164.4556,-169"/>
<polygon fill="#000000" stroke="#000000" points="164.4556,-172.5001 174.4556,-169 164.4555,-165.5001 164.4556,-172.5001"/>
</g>
</g>
</svg>
